# xmcd
#
# Track frame offsets: 
#        150
#        16728
#        37850
#        60529
#        71478
#        89700
#        105149
#        124343
#        141770
#
# Disc length: 2160 seconds
#
# Revision: 0
# Processed by: cddbd v1.5.2PL0 Copyright (c) Steve Scherf et al.
# Submitted via: ExactAudioCopy v0.99pb4
#
DISCID=6e086e09
DTITLE=Tipsy Drivers - Blues and Chicago sound
DYEAR=2000
DGENRE=Blues
TTITLE0=Off the wall
TTITLE1=Ciagle wiecej
TTITLE2=Country girl
TTITLE3=Blue Midnight
TTITLE4=What my mama told me
TTITLE5=Missin' with the kid
TTITLE6=Myszki
TTITLE7=It's too late brother
TTITLE8=Szukajac cel;u
EXTD=
EXTT0=
EXTT1=
EXTT2=
EXTT3=
EXTT4=
EXTT5=
EXTT6=
EXTT7=
EXTT8=
PLAYORDER=
